<svg width="344" height="259" viewBox="0 0 344 259" fill="none" xmlns="http://www.w3.org/2000/svg">
<g clip-path="url(#clip0_28_124)">
<path d="M68.5397 259C106.393 259 137.079 256.478 137.079 253.367C137.079 250.256 106.393 247.734 68.5397 247.734C30.6863 247.734 0 250.256 0 253.367C0 256.478 30.6863 259 68.5397 259Z" fill="#374140"/>
<path d="M52.3906 57.4678C64.3186 51.9776 79.1751 55.4561 93.684 57.8703C93.8191 54.9467 95.4556 51.3885 93.7413 49.3488C91.6586 46.8708 91.8503 44.2671 93.1036 41.6484C96.3084 34.9519 91.7168 27.8266 87.0807 21.9019C86.0357 20.5695 84.7151 19.5227 83.226 18.8463C81.737 18.17 80.1215 17.8833 78.5109 18.0095L69.9228 18.6733C67.833 18.8348 65.8386 19.6832 64.2065 21.1048C62.5744 22.5265 61.3824 24.4536 60.7901 26.6283C58.7394 29.6464 57.6419 32.6561 58.3329 35.6501C55.2613 37.9216 54.7453 40.6636 56.1255 43.7546C57.2959 45.7008 57.2835 47.5953 56.0723 49.4373C54.4817 51.7858 53.2634 54.4044 52.4674 57.1858L52.3906 57.4678Z" fill="#3F3E50"/>
<path d="M335.849 223.901H92.7418C90.5799 223.901 88.5066 222.972 86.9778 221.318C85.4491 219.664 84.5903 217.42 84.5903 215.08C172.717 203.997 259.186 203.997 344 215.08C344 217.42 343.141 219.664 341.613 221.318C340.084 222.972 338.011 223.901 335.849 223.901Z" fill="#515067"/>
<path d="M344 215.599L84.5903 215.08L114.655 160.337L114.799 160.078V39.4307C114.799 37.9664 115.065 36.5163 115.583 35.1633C116.101 33.8104 116.86 32.581 117.817 31.5456C118.774 30.5101 119.91 29.6887 121.16 29.1284C122.41 28.568 123.75 28.2797 125.103 28.2798H302.049C303.402 28.2797 304.742 28.568 305.992 29.1284C307.242 29.6887 308.378 30.5101 309.335 31.5456C310.292 32.581 311.051 33.8104 311.569 35.1633C312.087 36.5163 312.353 37.9664 312.353 39.4307V160.908L344 215.599Z" fill="#3F3D56"/>
<path d="M124.868 36.063C123.978 36.0641 123.125 36.4471 122.496 37.128C121.867 37.809 121.513 38.7322 121.512 39.6952V149.7C121.513 150.663 121.867 151.586 122.496 152.267C123.125 152.948 123.978 153.331 124.868 153.332H303.722C304.612 153.331 305.465 152.948 306.094 152.267C306.723 151.586 307.077 150.663 307.078 149.7V39.6952C307.077 38.7322 306.723 37.809 306.094 37.1281C305.465 36.4472 304.612 36.0641 303.722 36.063H124.868Z" fill="white"/>
<path d="M125.618 167.861C125.343 167.862 125.073 167.947 124.842 168.108C124.61 168.268 124.426 168.497 124.311 168.767L115.047 190.561C114.946 190.798 114.902 191.058 114.918 191.319C114.935 191.579 115.012 191.831 115.142 192.051C115.272 192.271 115.452 192.452 115.663 192.577C115.875 192.702 116.112 192.768 116.353 192.768H311.168C311.413 192.768 311.654 192.7 311.868 192.571C312.082 192.442 312.262 192.255 312.391 192.029C312.52 191.804 312.594 191.546 312.605 191.281C312.616 191.016 312.564 190.752 312.454 190.515L302.384 168.722C302.266 168.462 302.082 168.245 301.855 168.092C301.628 167.94 301.365 167.86 301.098 167.861H125.618Z" fill="#515067"/>
<path d="M213.576 34.2467C214.767 34.2467 215.733 33.2013 215.733 31.9117C215.733 30.6221 214.767 29.5767 213.576 29.5767C212.384 29.5767 211.418 30.6221 211.418 31.9117C211.418 33.2013 212.384 34.2467 213.576 34.2467Z" fill="white"/>
<path d="M194.427 196.919C194.111 196.919 193.804 197.032 193.553 197.241C193.302 197.449 193.121 197.74 193.038 198.071L190.715 207.411C190.657 207.641 190.65 207.883 190.692 208.118C190.735 208.352 190.827 208.573 190.962 208.762C191.096 208.952 191.269 209.106 191.467 209.212C191.665 209.317 191.883 209.372 192.103 209.372H236.296C236.525 209.372 236.751 209.313 236.955 209.199C237.159 209.086 237.335 208.921 237.468 208.719C237.601 208.516 237.687 208.283 237.72 208.037C237.752 207.791 237.73 207.541 237.655 207.306L234.667 197.966C234.569 197.661 234.386 197.395 234.142 197.208C233.899 197.02 233.607 196.919 233.308 196.919H194.427Z" fill="#515067"/>
<path d="M312.353 158.262V160.337H114.655L114.804 160.078V158.262H312.353Z" fill="#3F3E50"/>
<path d="M306.838 72.6447C325.376 72.6447 340.404 56.3826 340.404 36.3223C340.404 16.2621 325.376 0 306.838 0C288.301 0 273.273 16.2621 273.273 36.3223C273.273 56.3826 288.301 72.6447 306.838 72.6447Z" fill="#4D9C95"/>
<path d="M320.729 54.3123H292.918C292.409 54.3118 291.922 54.0929 291.562 53.7038C291.203 53.3147 291.001 52.7871 291 52.2367V34.0756C291.001 33.5253 291.203 32.9977 291.562 32.6086C291.922 32.2194 292.409 32.0006 292.918 32H320.729C321.238 32.0006 321.725 32.2194 322.085 32.6086C322.444 32.9977 322.647 33.5253 322.647 34.0756V52.2367C322.647 52.787 322.444 53.3147 322.085 53.7038C321.725 54.0929 321.238 54.3118 320.729 54.3123ZM292.918 34.0756V52.2367H320.73L320.729 34.0756L292.918 34.0756Z" fill="white"/>
<path d="M315.47 33.912H298.208V25.6098C298.208 19.5964 301.837 15.2319 306.839 15.2319C311.84 15.2319 315.47 19.5964 315.47 25.6098L315.47 33.912ZM300.126 31.8364H313.552V25.6098C313.552 20.7216 310.791 17.3075 306.839 17.3075C302.886 17.3075 300.126 20.7216 300.126 25.6098L300.126 31.8364Z" fill="#F2F2F2"/>
<path d="M306.839 42.5491C307.898 42.5491 308.757 41.6198 308.757 40.4735C308.757 39.3272 307.898 38.3979 306.839 38.3979C305.78 38.3979 304.921 39.3272 304.921 40.4735C304.921 41.6198 305.78 42.5491 306.839 42.5491Z" fill="#F2F2F2"/>
<path d="M283.407 116.02H145.183C144.504 116.019 143.854 115.727 143.374 115.208C142.894 114.688 142.624 113.984 142.623 113.25V76.1455C142.624 75.4111 142.894 74.707 143.374 74.1878C143.854 73.6685 144.504 73.3764 145.183 73.3755H283.407C284.086 73.3764 284.737 73.6685 285.216 74.1878C285.696 74.707 285.966 75.4111 285.967 76.1455V113.25C285.966 113.984 285.696 114.688 285.216 115.208C284.737 115.727 284.086 116.019 283.407 116.02ZM145.183 74.4835C144.776 74.484 144.385 74.6592 144.097 74.9708C143.809 75.2824 143.647 75.7048 143.647 76.1455V113.25C143.647 113.69 143.809 114.113 144.097 114.424C144.385 114.736 144.776 114.911 145.183 114.912H283.407C283.815 114.911 284.205 114.736 284.493 114.424C284.781 114.113 284.943 113.69 284.943 113.25V76.1455C284.943 75.7048 284.781 75.2824 284.493 74.9708C284.205 74.6592 283.815 74.484 283.407 74.4835L145.183 74.4835Z" fill="#E6E6E6"/>
<path d="M166.66 104.557C172.419 104.557 177.087 99.5054 177.087 93.2737C177.087 87.042 172.419 81.9902 166.66 81.9902C160.902 81.9902 156.233 87.042 156.233 93.2737C156.233 99.5054 160.902 104.557 166.66 104.557Z" fill="#E6E6E6"/>
<path d="M190.741 85.7515C190.513 85.7511 190.286 85.7994 190.075 85.8938C189.864 85.9881 189.672 86.1266 189.51 86.3012C189.349 86.4759 189.221 86.6833 189.133 86.9117C189.046 87.14 189 87.3848 189 87.632C189 87.8793 189.046 88.124 189.133 88.3524C189.221 88.5807 189.349 88.7882 189.51 88.9629C189.672 89.1375 189.864 89.276 190.075 89.3703C190.286 89.4647 190.513 89.513 190.741 89.5126H272.667C273.128 89.5126 273.57 89.3145 273.896 88.9618C274.221 88.6091 274.405 88.1308 274.405 87.632C274.405 87.1333 274.221 86.6549 273.896 86.3023C273.57 85.9496 273.128 85.7515 272.667 85.7515H190.741Z" fill="#E6E6E6"/>
<path d="M190.741 97.0352C190.28 97.0352 189.838 97.2333 189.512 97.586C189.187 97.9386 189.003 98.417 189.003 98.9157C189.003 99.4145 189.187 99.8928 189.512 100.246C189.838 100.598 190.28 100.796 190.741 100.796H225.994C226.455 100.796 226.897 100.598 227.223 100.246C227.549 99.8928 227.732 99.4145 227.732 98.9157C227.732 98.417 227.549 97.9386 227.223 97.586C226.897 97.2333 226.455 97.0352 225.994 97.0352H190.741Z" fill="#E6E6E6"/>
<path d="M114.315 97.7959L88.7629 112.496L88.4395 100.246C96.7794 98.7394 104.714 96.1163 112.051 91.8458L114.723 84.701C115.014 83.9224 115.488 83.2392 116.096 82.7184C116.705 82.1976 117.429 81.8571 118.196 81.7303C118.963 81.6035 119.748 81.6948 120.473 81.9952C121.198 82.2957 121.838 82.7949 122.33 83.4439C123.051 84.3935 123.411 85.604 123.338 86.8303C123.265 88.0566 122.764 89.2069 121.936 90.0483L114.315 97.7959Z" fill="#FFB8B8"/>
<path d="M51.8814 182.671C51.695 181.931 51.6554 181.157 51.7653 180.4C51.8751 179.642 52.1319 178.918 52.5188 178.276L58.1318 168.954C59.4594 166.749 61.4965 165.157 63.8479 164.485C66.1993 163.814 68.6973 164.112 70.8572 165.321C68.4982 169.666 68.8271 173.478 71.6719 176.791C67.2556 179.124 63.174 182.135 59.5534 185.731C58.8924 186.219 58.1333 186.528 57.3394 186.634C56.5454 186.74 55.7396 186.639 54.989 186.34C54.2384 186.04 53.5647 185.551 53.0242 184.913C52.4837 184.275 52.0919 183.506 51.8814 182.671Z" fill="#3F3E50"/>
<path d="M115.479 170.483C114.629 172.014 113.43 173.284 111.997 174.17C110.563 175.057 108.943 175.529 107.293 175.543L70.0034 175.848L68.3862 165.698L84.8817 160.448L70.9738 148.897L86.1755 129.647L113.787 157.495C115.4 159.123 116.449 161.301 116.757 163.665C117.065 166.029 116.614 168.435 115.479 170.483Z" fill="#3F3E50"/>
<path d="M64.1813 239.901H55.4484C47.6075 181.739 39.6262 123.415 63.211 101.646L91.027 106.546L87.4691 132.097L71.9439 151.348L64.1813 239.901Z" fill="#3F3E50"/>
<path d="M71.8577 254.076C71.1741 254.278 70.4587 254.32 69.7587 254.202C69.0586 254.083 68.3898 253.805 67.796 253.386L58.3139 252.007C56.2763 250.571 54.8045 248.366 54.1841 245.822C53.5636 243.277 53.8386 240.574 54.9559 238.237C58.9714 240.789 62.494 240.433 65.555 237.354C67.7179 242.08 71.2815 241.792 74.6849 245.773C75.1356 246.489 75.4218 247.31 75.5197 248.169C75.6175 249.028 75.5243 249.9 75.2477 250.713C74.9711 251.525 74.5191 252.254 73.9295 252.839C73.3398 253.424 72.6295 253.848 71.8577 254.076Z" fill="#3F3E50"/>
<path d="M84.8816 67.7944L68.7095 63.5942C71.3954 57.6447 71.6166 51.0246 70.3267 43.9936L81.3237 43.6436C81.6683 52.3869 82.7107 60.5554 84.8816 67.7944Z" fill="#FFB8B8"/>
<path d="M89.326 117.085C77.5533 125.766 69.2351 117.382 62.8873 104.446C63.7694 96.5306 62.3412 87.0581 59.696 76.7655C58.5196 72.2257 58.9588 67.3736 60.9269 63.1672C62.895 58.9607 66.2489 55.7056 70.3265 54.0444L84.2345 60.3447C96.0439 70.7615 98.3684 82.0451 93.9377 93.9458L89.326 117.085Z" fill="#4D9C95"/>
<path d="M55.4482 71.5448L42.5105 78.8951L65.4749 93.5956L68.6703 102.125C68.8835 102.694 68.9874 103.305 68.9756 103.919C68.9638 104.533 68.8365 105.138 68.6015 105.697C68.3666 106.256 68.0288 106.758 67.6088 107.171C67.1889 107.584 66.6955 107.901 66.1589 108.101C65.5489 108.329 64.8984 108.401 64.2585 108.311C63.6186 108.221 63.0066 107.972 62.4704 107.584C61.9342 107.195 61.4884 106.677 61.1679 106.071C60.8474 105.465 60.6609 104.787 60.623 104.09L60.2999 98.1457L31.1124 87.7226C30.129 87.3714 29.2324 86.7827 28.4904 86.001C27.7484 85.2193 27.1805 84.2651 26.8297 83.2107C26.3184 81.6738 26.2924 79.9968 26.7557 78.4422C27.219 76.8875 28.1455 75.543 29.3902 74.6189L52.8607 57.1943L55.4482 71.5448Z" fill="#FFB8B8"/>
<path d="M68.3858 72.9447C62.9899 70.3858 58.0834 73.1656 51.8902 75.3948L50.9199 56.8442C57.0695 53.2973 62.9326 52.341 68.3858 55.0941L68.3858 72.9447Z" fill="#4D9C95"/>
<path d="M74.8404 47.8328C80.5429 47.8328 85.1656 42.8302 85.1656 36.6593C85.1656 30.4884 80.5429 25.4858 74.8404 25.4858C69.1379 25.4858 64.5151 30.4884 64.5151 36.6593C64.5151 42.8302 69.1379 47.8328 74.8404 47.8328Z" fill="#FFB8B8"/>
<path d="M87.1928 35.2492C76.9699 36.3326 69.1802 34.5234 64.2017 29.3718V25.2231H86.3252L87.1928 35.2492Z" fill="#3F3E50"/>
</g>
<defs>
<clipPath id="clip0_28_124">
<rect width="344" height="259" fill="white"/>
</clipPath>
</defs>
</svg>
