<svg width="264" height="258" viewBox="0 0 264 258" fill="none" xmlns="http://www.w3.org/2000/svg">
<g clip-path="url(#clip0_32_193)">
<path d="M168.383 57.8345H154.336V177.94C154.336 179.824 153.966 181.69 153.247 183.431C152.528 185.172 151.474 186.754 150.146 188.086C148.817 189.419 147.24 190.476 145.504 191.197C143.768 191.918 141.907 192.289 140.028 192.289H32.6348V192.427C32.6348 194.311 33.0048 196.177 33.7239 197.918C34.4429 199.659 35.4968 201.241 36.8255 202.573C38.1541 203.906 39.7314 204.963 41.4673 205.684C43.2032 206.405 45.0638 206.776 46.9428 206.776H168.383C170.262 206.776 172.123 206.405 173.859 205.684C175.595 204.963 177.172 203.906 178.501 202.573C179.829 201.241 180.883 199.659 181.602 197.918C182.321 196.177 182.691 194.311 182.691 192.427V72.1841C182.691 68.3783 181.184 64.7284 178.501 62.0374C175.817 59.3463 172.178 57.8345 168.383 57.8345V57.8345Z" fill="#F2F2F2"/>
<path d="M234.972 248.7C235.22 248.711 235.467 248.646 235.677 248.512C235.887 248.379 236.052 248.184 236.148 247.953C236.244 247.723 236.267 247.469 236.214 247.225C236.161 246.981 236.034 246.759 235.852 246.59L235.768 246.258C235.779 246.231 235.79 246.205 235.802 246.178C236.052 245.585 236.472 245.079 237.008 244.724C237.545 244.369 238.173 244.181 238.816 244.183C239.459 244.186 240.086 244.378 240.62 244.737C241.153 245.096 241.57 245.605 241.816 246.201C242.799 248.577 244.052 250.957 244.36 253.469C244.496 254.579 244.439 255.705 244.191 256.796C246.501 251.741 247.701 246.248 247.708 240.688C247.709 239.293 247.632 237.899 247.477 236.512C247.349 235.375 247.172 234.247 246.945 233.126C245.706 227.046 243.048 221.348 239.187 216.499C237.319 215.476 235.808 213.904 234.857 211.993C234.513 211.307 234.27 210.574 234.135 209.817C234.346 209.845 234.93 206.625 234.771 206.428C235.065 205.981 235.591 205.759 235.911 205.322C237.507 203.153 239.705 203.532 240.853 206.48C243.304 207.721 243.328 209.779 241.824 211.758C240.867 213.017 240.735 214.721 239.896 216.069C239.982 216.18 240.072 216.287 240.158 216.398C241.737 218.435 243.114 220.621 244.267 222.927C243.987 220.344 244.322 217.731 245.245 215.303C246.18 213.04 247.933 211.134 249.477 209.178C249.885 208.653 250.439 208.261 251.07 208.051C251.701 207.842 252.379 207.824 253.019 208.001C253.66 208.178 254.233 208.542 254.668 209.046C255.102 209.55 255.378 210.172 255.46 210.833C255.463 210.862 255.466 210.89 255.469 210.919C255.24 211.049 255.016 211.187 254.796 211.332C254.52 211.517 254.306 211.781 254.183 212.09C254.059 212.399 254.031 212.738 254.103 213.063C254.175 213.388 254.343 213.683 254.585 213.911C254.827 214.138 255.132 214.287 255.46 214.338L255.493 214.343C255.412 215.172 255.267 215.993 255.062 216.8C257.042 224.481 252.766 227.279 246.661 227.405C246.527 227.474 246.395 227.543 246.26 227.609C247.42 230.904 248.147 234.336 248.424 237.819C248.58 239.873 248.571 241.937 248.396 243.991L248.406 243.918C248.849 241.635 250.063 239.575 251.845 238.085C254.49 235.906 258.229 235.103 261.083 233.351C261.386 233.155 261.739 233.051 262.1 233.05C262.46 233.049 262.813 233.152 263.118 233.346C263.422 233.54 263.665 233.817 263.817 234.144C263.969 234.472 264.025 234.836 263.978 235.195L263.966 235.271C263.541 235.445 263.126 235.645 262.726 235.871C262.496 236.001 262.272 236.138 262.052 236.284C261.777 236.469 261.563 236.733 261.439 237.042C261.315 237.351 261.288 237.69 261.359 238.015C261.431 238.339 261.599 238.635 261.841 238.863C262.083 239.09 262.388 239.239 262.716 239.29L262.75 239.295C262.774 239.298 262.795 239.302 262.819 239.305C262.092 241.046 261.072 242.649 259.802 244.043C258.564 250.748 253.246 251.384 247.556 249.431H247.553C246.929 252.152 246.024 254.8 244.854 257.333H235.213C235.179 257.225 235.148 257.114 235.117 257.007C236.009 257.063 236.905 257.01 237.784 256.848C237.069 255.967 236.354 255.08 235.638 254.2C235.622 254.184 235.607 254.166 235.593 254.148C235.231 253.698 234.864 253.25 234.501 252.8L234.501 252.799C234.482 251.418 234.64 250.041 234.971 248.7L234.972 248.7Z" fill="#F2F2F2"/>
<path d="M128.787 41.4967C129.139 42.0316 129.602 42.4833 130.146 42.8208C130.689 43.1582 131.299 43.3733 131.933 43.4512C132.567 43.529 133.211 43.4678 133.819 43.2717C134.427 43.0756 134.986 42.7493 135.456 42.3154L155.5 51.3846L159.364 46.4412L135.479 35.8441C134.692 35.1047 133.662 34.6805 132.584 34.6519C131.506 34.6234 130.455 34.9925 129.63 35.6892C128.805 36.386 128.263 37.362 128.108 38.4324C127.953 39.5027 128.194 40.5931 128.787 41.4967H128.787Z" fill="#A0616A"/>
<path d="M214.806 47.1518L216.793 58.4496C216.886 58.9767 216.868 59.5174 216.74 60.037C216.612 60.5566 216.377 61.0437 216.051 61.4669C215.724 61.8901 215.313 62.2401 214.843 62.4944C214.373 62.7488 213.856 62.9018 213.324 62.9438L179.545 65.6078L139.839 47.786L144.582 38.7573L179.05 49.7041L214.806 47.1518Z" fill="#97DECE"/>
<path d="M135.749 39.0552H14.308C6.40591 39.0552 0 45.4797 0 53.4048V173.647C0 181.572 6.40591 187.997 14.308 187.997H135.749C143.651 187.997 150.057 181.572 150.057 173.647V53.4048C150.057 45.4797 143.651 39.0552 135.749 39.0552Z" fill="#F2F2F2"/>
<path d="M14.3082 42.0059C12.8156 42.0059 11.3377 42.3007 9.95876 42.8735C8.57983 43.4463 7.3269 44.286 6.27151 45.3444C5.21613 46.4029 4.37894 47.6594 3.80777 49.0424C3.2366 50.4253 2.94263 51.9076 2.94263 53.4044V173.647C2.94263 176.67 4.14006 179.569 6.27151 181.707C8.40297 183.845 11.2938 185.046 14.3082 185.046H91.8144C99.0765 185.046 106.267 183.611 112.977 180.824C119.686 178.037 125.782 173.952 130.917 168.802C136.052 163.652 140.126 157.538 142.905 150.809C145.684 144.08 147.114 136.868 147.114 129.585V53.4044C147.114 51.9076 146.82 50.4253 146.249 49.0424C145.678 47.6594 144.841 46.4029 143.785 45.3444C142.73 44.286 141.477 43.4463 140.098 42.8735C138.719 42.3007 137.241 42.0059 135.748 42.0059H14.3082Z" fill="white"/>
<path d="M108.977 78.4974H40.8146C40.1891 78.4974 39.5893 78.2482 39.147 77.8046C38.7048 77.3611 38.4563 76.7595 38.4563 76.1322C38.4563 75.5049 38.7048 74.9034 39.147 74.4598C39.5893 74.0163 40.1891 73.7671 40.8146 73.7671H108.977C109.602 73.7671 110.202 74.0163 110.644 74.4598C111.086 74.9034 111.335 75.5049 111.335 76.1322C111.335 76.7595 111.086 77.3611 110.644 77.8046C110.202 78.2482 109.602 78.4974 108.977 78.4974Z" fill="#F2F2F2"/>
<path d="M108.977 128.933H40.8146C40.1891 128.933 39.5893 128.684 39.147 128.241C38.7048 127.797 38.4563 127.196 38.4563 126.568C38.4563 125.941 38.7048 125.339 39.147 124.896C39.5893 124.452 40.1891 124.203 40.8146 124.203H108.977C109.602 124.203 110.202 124.452 110.644 124.896C111.086 125.339 111.335 125.941 111.335 126.568C111.335 127.196 111.086 127.797 110.644 128.241C110.202 128.684 109.602 128.933 108.977 128.933Z" fill="#F2F2F2"/>
<path d="M136.656 103.732H13.1354C12.5099 103.732 11.9101 103.483 11.4678 103.04C11.0256 102.596 10.7771 101.994 10.7771 101.367C10.7771 100.74 11.0256 100.138 11.4678 99.6947C11.9101 99.2511 12.5099 99.002 13.1354 99.002H136.656C137.281 99.002 137.881 99.2511 138.323 99.6947C138.765 100.138 139.014 100.74 139.014 101.367C139.014 101.994 138.765 102.596 138.323 103.04C137.881 103.483 137.281 103.732 136.656 103.732V103.732Z" fill="#F2F2F2"/>
<path d="M210.538 96.9478L198.233 123.239L245.568 118.431L235.687 93.1919L210.538 96.9478Z" fill="#A0616A"/>
<path d="M221.543 248.059L217.055 248.021L215.068 230.255L221.691 230.311L221.543 248.059Z" fill="#A0616A"/>
<path d="M207.167 255.216C207.163 255.749 207.37 256.263 207.743 256.643C208.116 257.024 208.624 257.241 209.156 257.246L218.079 257.32L219.641 254.145L220.215 257.337L223.582 257.367L222.732 245.983L221.56 245.905L216.783 245.575L215.241 245.471L215.214 248.692L208.046 253.568C207.778 253.751 207.557 253.996 207.404 254.283C207.251 254.57 207.17 254.89 207.167 255.216V255.216Z" fill="#2F2E41"/>
<path d="M171.876 248.079L167.597 246.72L170.903 229.153L177.218 231.158L171.876 248.079Z" fill="#A0616A"/>
<path d="M156.038 250.684C155.878 251.193 155.926 251.745 156.171 252.219C156.416 252.692 156.838 253.049 157.345 253.211L165.853 255.912L168.276 253.337L167.889 256.556L171.099 257.578L173.621 246.446L172.524 246.026L168.054 244.302L166.611 243.749L165.642 246.82L157.362 249.369C157.051 249.464 156.769 249.634 156.538 249.863C156.308 250.092 156.136 250.374 156.038 250.684V250.684Z" fill="#2F2E41"/>
<path d="M243.412 111.038L200.373 118.947C200.373 118.947 193.47 124.126 195.316 125.98C197.163 127.835 197.45 127.548 196.236 128.764C195.023 129.981 192.4 131.608 192.374 132.672C192.348 133.737 173.088 181.49 173.088 181.49C173.088 181.49 175.228 180.417 173.623 182.027C172.018 183.636 172.018 184.966 172.018 184.966L164.528 235.682L176.692 236.4L188.603 190.164L215.171 146.969C215.171 146.969 217.807 185.488 217.917 188.05C218.028 190.611 219.633 187.392 218.028 190.611C216.423 193.831 215.353 191.685 216.423 193.831C217.493 195.977 212.568 239.671 212.568 239.671H223.671L247.484 149.106C247.484 149.106 255.956 123.214 243.412 111.038Z" fill="#2F2E41"/>
<path d="M230.733 38.5968L213.493 36.8003L209.026 42.6161L203.823 45.3956C201.621 46.5718 199.803 48.3593 198.587 50.5442C197.372 52.7291 196.809 55.219 196.967 57.7161L203.048 93.1924C203.048 93.1924 197.911 104.792 201.443 107.679C204.975 110.566 198.713 117.717 206.258 114.118C213.803 110.519 246.383 114.654 246.383 114.654L239.428 94.802L244.623 75.2943L245.195 58.9374C245.302 55.8808 244.398 52.8747 242.623 50.3875C240.848 47.9004 238.303 46.072 235.384 45.1872L234.657 44.9671L230.733 38.5968Z" fill="#97DECE"/>
<path d="M254.468 25.3413C254.581 30.2148 252.765 34.9338 250.156 39.0787C249.381 36.659 247.987 34.4567 246.534 32.3574C247.267 36.8989 246.486 41.5559 244.314 45.6078C244.237 45.6627 244.158 45.7138 244.076 45.7607C241.95 47.0436 239.254 47.5632 236.953 46.6366C241.706 41.4982 242.311 32.9847 238.326 27.2211C237.198 25.5857 235.739 24.1393 235.04 22.2782C233.937 19.3086 234.997 16.0391 235.666 12.943C236.292 10.0615 236.401 6.63247 234.474 4.52068C234.68 4.22557 234.96 3.99065 235.286 3.84001C235.613 3.68938 235.973 3.62843 236.33 3.66342C237.519 3.83178 238.384 4.86779 238.935 5.93481C239.486 7.00181 239.849 8.1844 240.617 9.10602C242.039 10.831 244.461 11.2389 246.501 12.148C251.443 14.3557 254.349 19.9185 254.468 25.3413Z" fill="#2F2E41"/>
<path d="M127.142 257.362C127.142 257.446 127.158 257.529 127.19 257.606C127.222 257.684 127.269 257.754 127.328 257.814C127.387 257.873 127.458 257.92 127.535 257.952C127.612 257.984 127.695 258 127.779 258H263.288C263.457 258 263.619 257.933 263.738 257.813C263.858 257.693 263.925 257.531 263.925 257.362C263.925 257.192 263.858 257.03 263.738 256.91C263.619 256.79 263.457 256.723 263.288 256.723H127.779C127.695 256.723 127.612 256.739 127.535 256.771C127.458 256.803 127.387 256.85 127.328 256.91C127.269 256.969 127.222 257.039 127.19 257.117C127.158 257.195 127.142 257.278 127.142 257.362Z" fill="#CCCCCC"/>
<path d="M255.535 138.295C258.194 138.295 260.35 136.133 260.35 133.466C260.35 130.799 258.194 128.637 255.535 128.637C252.876 128.637 250.72 130.799 250.72 133.466C250.72 136.133 252.876 138.295 255.535 138.295Z" fill="#97DECE"/>
<path d="M212.868 22.555C213.15 21.5637 211.204 27.6235 212.143 27.7329C216.421 28.2251 222.294 30.7876 225.274 31.983C225.408 31.9674 225.542 31.9518 225.672 31.9322C225.992 31.8971 226.304 31.8463 226.611 31.7877C233.55 30.4711 236.218 19.7823 236.218 19.6846C236.218 19.2041 235.068 6.00632 233.256 5.81101C232.78 5.75924 232.302 5.73315 231.824 5.73288H227.328C226.398 5.53185 225.455 5.3948 224.507 5.32268H224.499C215.449 4.63119 208.314 10.163 208.981 16.8943C208.985 16.9021 208.992 16.9099 208.996 16.9177C209.19 17.2068 209.359 17.4803 209.509 17.742C209.655 17.9882 209.778 18.2225 209.884 18.4452C210.709 20.1642 208.589 22.3272 209.995 22.7309C211.865 23.2678 205.077 40.9165 212.478 40.9165C208.878 41.9431 212.089 25.2897 212.868 22.555Z" fill="#2F2E41"/>
<path d="M220.946 32.9103C226.824 32.9103 231.589 28.1315 231.589 22.2364C231.589 16.3414 226.824 11.5625 220.946 11.5625C215.068 11.5625 210.303 16.3414 210.303 22.2364C210.303 28.1315 215.068 32.9103 220.946 32.9103Z" fill="#A0616A"/>
<path d="M208.98 17.476C209.158 17.5698 209.332 17.6557 209.509 17.7417C209.695 17.8315 209.88 17.9214 210.066 18.0034C213.63 19.6247 216.53 19.8044 218.291 17.476C218.338 16.2509 218.612 15.0453 219.1 13.9209C219.014 15.1774 219.344 16.4272 220.039 17.476H223.583C227.234 19.906 229.108 20.1599 226.575 28.1374C225.868 30.3603 223.059 43.2953 224.164 45.2135C224.484 45.1784 227.885 31.0105 228.193 30.9519C235.131 29.6353 239.539 18.1714 238.975 17.5229C238.978 15.6787 238.555 13.8589 237.74 12.2059C236.708 10.1116 235.1 8.3574 233.106 7.15065C231.918 6.57262 230.678 6.10575 229.404 5.75595C229.373 5.74813 229.345 5.74031 229.314 5.73251C228.923 5.62702 228.524 5.52936 228.126 5.44732C227.302 5.27293 226.469 5.14641 225.631 5.06837C225.572 5.06446 225.513 5.06055 225.458 5.06055C225.123 5.06133 224.795 5.1517 224.507 5.32231C224.503 5.32231 224.503 5.3262 224.499 5.3262C224.293 5.44688 224.113 5.60759 223.97 5.7989C223.718 6.12081 223.581 6.51864 223.583 6.92794H219.636C219.49 6.92794 219.344 6.93184 219.198 6.93965C216.564 7.02993 214.059 8.10275 212.172 9.94817C210.285 11.7936 209.152 14.2788 208.996 16.9174C208.984 17.1049 208.98 17.2885 208.98 17.476Z" fill="#2F2E41"/>
<path d="M232.251 14.0641C236.123 14.0641 239.263 10.9157 239.263 7.03204C239.263 3.14835 236.123 0 232.251 0C228.378 0 225.239 3.14835 225.239 7.03204C225.239 10.9157 228.378 14.0641 232.251 14.0641Z" fill="#2F2E41"/>
<path d="M255.589 135.457C255.931 134.916 256.152 134.307 256.236 133.672C256.321 133.036 256.266 132.39 256.077 131.778C255.888 131.166 255.569 130.602 255.141 130.126C254.714 129.65 254.188 129.273 253.601 129.021L253.635 106.968L247.555 105.458L247.705 131.651C247.355 132.674 247.392 133.791 247.807 134.789C248.223 135.787 248.99 136.597 249.962 137.066C250.933 137.535 252.043 137.631 253.08 137.334C254.117 137.038 255.01 136.37 255.589 135.457V135.457Z" fill="#A0616A"/>
<path d="M225.481 54.4478L234.942 47.9993C235.384 47.6984 235.883 47.4935 236.408 47.3976C236.933 47.3017 237.472 47.3169 237.991 47.4424C238.51 47.5678 238.997 47.8007 239.421 48.126C239.844 48.4513 240.196 48.8619 240.452 49.3314L256.718 79.1415L256.78 122.769L246.625 122.13L242.456 86.112L225.481 54.4478Z" fill="#97DECE"/>
<path d="M152.819 153.388H51.705C49.5058 153.388 47.3965 154.264 45.8414 155.824C44.2863 157.384 43.4126 159.499 43.4126 161.705C43.4126 163.91 44.2863 166.026 45.8414 167.585C47.3965 169.145 49.5058 170.021 51.705 170.021H152.819C155.019 170.021 157.128 169.145 158.683 167.585C160.238 166.026 161.112 163.91 161.112 161.705C161.112 159.499 160.238 157.384 158.683 155.824C157.128 154.264 155.019 153.388 152.819 153.388V153.388Z" fill="white"/>
<path d="M152.819 170.558H51.7051C49.3639 170.558 47.1186 169.625 45.4632 167.965C43.8077 166.304 42.8777 164.053 42.8777 161.705C42.8777 159.357 43.8077 157.105 45.4632 155.445C47.1186 153.784 49.3639 152.852 51.7051 152.852H152.819C155.161 152.852 157.406 153.784 159.061 155.445C160.717 157.105 161.647 159.357 161.647 161.705C161.647 164.053 160.717 166.304 159.061 167.965C157.406 169.625 155.161 170.558 152.819 170.558V170.558ZM51.7051 153.925C49.6477 153.925 47.6746 154.744 46.2198 156.203C44.765 157.662 43.9477 159.641 43.9477 161.705C43.9477 163.768 44.765 165.747 46.2198 167.206C47.6746 168.665 49.6477 169.485 51.7051 169.485H152.819C154.877 169.485 156.85 168.665 158.305 167.206C159.76 165.747 160.577 163.768 160.577 161.705C160.577 159.641 159.76 157.662 158.305 156.203C156.85 154.744 154.877 153.925 152.819 153.925H51.7051Z" fill="#97DECE"/>
<path d="M158.782 189.682H114.16C113.534 189.682 112.934 189.433 112.492 188.989C112.05 188.546 111.801 187.944 111.801 187.317C111.801 186.69 112.05 186.088 112.492 185.644C112.934 185.201 113.534 184.952 114.16 184.952H158.782C159.407 184.952 160.007 185.201 160.449 185.644C160.891 186.088 161.14 186.69 161.14 187.317C161.14 187.944 160.891 188.546 160.449 188.989C160.007 189.433 159.407 189.682 158.782 189.682V189.682Z" fill="#97DECE"/>
</g>
<defs>
<clipPath id="clip0_32_193">
<rect width="264" height="258" fill="white"/>
</clipPath>
</defs>
</svg>
