<svg width="1366" height="768" viewBox="0 0 1366 768" fill="none" xmlns="http://www.w3.org/2000/svg">
<g clip-path="url(#clip0_57_90)">
<path d="M0 109.796H20.6323C41.2646 109.796 82.5292 109.796 124.078 112.22C165.485 114.502 207.319 119.35 248.726 120.491C290.275 121.631 331.54 119.35 372.804 112.933C414.069 106.517 455.333 95.9648 496.598 89.5481C537.862 83.1315 579.127 80.85 620.676 84.8426C662.083 88.8352 703.917 99.387 745.324 106.944C786.873 114.502 828.138 119.35 869.402 123.057C910.667 126.907 951.931 129.759 993.196 127.335C1034.46 125.054 1075.72 117.354 1117.27 110.937C1158.68 104.52 1200.51 99.387 1241.92 100.528C1283.47 101.669 1324.74 109.369 1345.37 113.076L1366 116.926V0H1345.37C1324.74 0 1283.47 0 1241.92 0C1200.51 0 1158.68 0 1117.27 0C1075.72 0 1034.46 0 993.196 0C951.931 0 910.667 0 869.402 0C828.138 0 786.873 0 745.324 0C703.917 0 662.083 0 620.676 0C579.127 0 537.862 0 496.598 0C455.333 0 414.069 0 372.804 0C331.54 0 290.275 0 248.726 0C207.319 0 165.485 0 124.078 0C82.5292 0 41.2646 0 20.6323 0H0V109.796Z" fill="#769E9B"/>
<path d="M0 186.796L20.6323 191.787C41.2646 196.778 82.5292 206.759 124.078 206.759C165.485 206.759 207.319 196.778 248.726 200.628C290.275 204.335 331.54 222.016 372.804 224.298C414.069 226.722 455.333 213.889 496.598 213.889C537.862 213.889 579.127 226.722 620.676 235.705C662.083 244.831 703.917 249.965 745.324 244.974C786.873 239.983 828.138 224.868 869.402 221.018C910.667 217.168 951.931 224.868 993.196 223.442C1034.46 222.016 1075.72 211.465 1117.27 201.341C1158.68 191.074 1200.51 181.092 1241.92 186.368C1283.47 191.502 1324.74 212.035 1345.37 222.159L1366 232.426V114.074L1345.37 110.224C1324.74 106.516 1283.47 98.8165 1241.92 97.6757C1200.51 96.535 1158.68 101.668 1117.27 108.085C1075.72 114.502 1034.46 122.202 993.196 124.483C951.931 126.907 910.667 124.055 869.402 120.205C828.138 116.498 786.873 111.65 745.324 104.092C703.917 96.535 662.083 85.9831 620.676 81.9905C579.127 77.9979 537.862 80.2794 496.598 86.6961C455.333 93.1127 414.069 103.665 372.804 110.081C331.54 116.498 290.275 118.779 248.726 117.639C207.319 116.498 165.485 111.65 124.078 109.368C82.5292 106.944 41.2646 106.944 20.6323 106.944H0V186.796Z" fill="#618E8A"/>
<path d="M0 340.796L20.6323 348.354C41.2646 356.054 82.5292 371.169 124.078 376.159C165.485 381.15 207.319 376.017 248.726 377.157C290.275 378.298 331.54 385.998 372.804 370.456C414.069 355.056 455.333 316.556 496.598 315.415C537.862 314.132 579.127 350.35 620.676 372.167C662.083 393.983 703.917 401.683 745.324 396.407C786.873 391.132 828.138 373.165 869.402 369.315C910.667 365.465 951.931 376.017 993.196 361.9C1034.46 347.926 1075.72 309.426 1117.27 296.593C1158.68 283.759 1200.51 296.593 1241.92 315.843C1283.47 335.093 1324.74 360.759 1345.37 373.593L1366 386.426V229.574L1345.37 219.307C1324.74 209.183 1283.47 188.65 1241.92 183.517C1200.51 178.241 1158.68 188.222 1117.27 198.489C1075.72 208.613 1034.46 219.165 993.196 220.591C951.931 222.017 910.667 214.317 869.402 218.167C828.138 222.017 786.873 237.132 745.324 242.122C703.917 247.113 662.083 241.98 620.676 232.854C579.127 223.87 537.862 211.037 496.598 211.037C455.333 211.037 414.069 223.87 372.804 221.446C331.54 219.165 290.275 201.483 248.726 197.776C207.319 193.926 165.485 203.907 124.078 203.907C82.5292 203.907 41.2646 193.926 20.6323 188.935L0 183.944V340.796Z" fill="#4B7E7A"/>
<path d="M0 617.426L20.6323 597.035C41.2646 576.502 82.5292 535.721 124.078 512.621C165.485 489.521 207.319 484.387 248.726 490.804C290.275 497.221 331.54 515.187 372.804 508.771C414.069 502.354 455.333 471.554 496.598 465.137C537.862 458.721 579.127 476.687 620.676 498.647C662.083 520.463 703.917 546.13 745.324 565.38C786.873 584.63 828.138 597.463 869.402 589.621C910.667 581.778 951.931 553.259 993.196 521.176C1034.46 489.093 1075.72 453.445 1117.27 456.011C1158.68 458.721 1200.51 499.502 1241.92 529.019C1283.47 558.535 1324.74 576.502 1345.37 585.628L1366 594.611V383.574L1345.37 370.741C1324.74 357.908 1283.47 332.241 1241.92 312.991C1200.51 293.741 1158.68 280.908 1117.27 293.741C1075.72 306.574 1034.46 345.074 993.196 359.048C951.931 373.165 910.667 362.613 869.402 366.463C828.138 370.313 786.873 388.28 745.324 393.556C703.917 398.832 662.083 391.132 620.676 369.315C579.127 347.498 537.862 311.28 496.598 312.563C455.333 313.704 414.069 352.204 372.804 367.604C331.54 383.147 290.275 375.447 248.726 374.306C207.319 373.165 165.485 378.298 124.078 373.308C82.5292 368.317 41.2646 353.202 20.6323 345.502L0 337.945V617.426Z" fill="#416D6A"/>
<path d="M0 771.426H20.6323C41.2646 771.426 82.5292 771.426 124.078 771.426C165.485 771.426 207.319 771.426 248.726 771.426C290.275 771.426 331.54 771.426 372.804 771.426C414.069 771.426 455.333 771.426 496.598 771.426C537.862 771.426 579.127 771.426 620.676 771.426C662.083 771.426 703.917 771.426 745.324 771.426C786.873 771.426 828.138 771.426 869.402 771.426C910.667 771.426 951.931 771.426 993.196 771.426C1034.46 771.426 1075.72 771.426 1117.27 771.426C1158.68 771.426 1200.51 771.426 1241.92 771.426C1283.47 771.426 1324.74 771.426 1345.37 771.426H1366V591.759L1345.37 582.776C1324.74 573.65 1283.47 555.683 1241.92 526.167C1200.51 496.65 1158.68 455.868 1117.27 453.159C1075.72 450.593 1034.46 486.241 993.196 518.324C951.931 550.407 910.667 578.926 869.402 586.769C828.138 594.611 786.873 581.778 745.324 562.528C703.917 543.278 662.083 517.611 620.676 495.794C579.127 473.835 537.862 455.869 496.598 462.285C455.333 468.702 414.069 499.502 372.804 505.918C331.54 512.335 290.275 494.369 248.726 487.952C207.319 481.535 165.485 486.669 124.078 509.769C82.5292 532.869 41.2646 573.65 20.6323 594.183L0 614.574V771.426Z" fill="#375D5A"/>
</g>
<defs>
<clipPath id="clip0_57_90">
<rect width="1366" height="770" fill="white"/>
</clipPath>
</defs>
</svg>
