<svg id="visual" viewBox="0 0 960 540" width="960" height="540" xmlns="http://www.w3.org/2000/svg" xmlns:xlink="http://www.w3.org/1999/xlink" version="1.1"><path d="M0 131L16 118.3C32 105.7 64 80.3 96 82C128 83.7 160 112.3 192 112.3C224 112.3 256 83.7 288 82.8C320 82 352 109 384 109.8C416 110.7 448 85.3 480 72.7C512 60 544 60 576 62.8C608 65.7 640 71.3 672 78.7C704 86 736 95 768 102.2C800 109.3 832 114.7 864 120C896 125.3 928 130.7 944 133.3L960 136L960 0L944 0C928 0 896 0 864 0C832 0 800 0 768 0C736 0 704 0 672 0C640 0 608 0 576 0C544 0 512 0 480 0C448 0 416 0 384 0C352 0 320 0 288 0C256 0 224 0 192 0C160 0 128 0 96 0C64 0 32 0 16 0L0 0Z" fill="#8ddbd3"></path><path d="M0 239L16 247C32 255 64 271 96 275.5C128 280 160 273 192 269.5C224 266 256 266 288 254.2C320 242.3 352 218.7 384 215C416 211.3 448 227.7 480 233.2C512 238.7 544 233.3 576 236C608 238.7 640 249.3 672 255.7C704 262 736 264 768 253.2C800 242.3 832 218.7 864 221.3C896 224 928 253 944 267.5L960 282L960 134L944 131.3C928 128.7 896 123.3 864 118C832 112.7 800 107.3 768 100.2C736 93 704 84 672 76.7C640 69.3 608 63.7 576 60.8C544 58 512 58 480 70.7C448 83.3 416 108.7 384 107.8C352 107 320 80 288 80.8C256 81.7 224 110.3 192 110.3C160 110.3 128 81.7 96 80C64 78.3 32 103.7 16 116.3L0 129Z" fill="#70d3c9"></path><path d="M0 422L16 424.7C32 427.3 64 432.7 96 430C128 427.3 160 416.7 192 406.8C224 397 256 388 288 390.7C320 393.3 352 407.7 384 415.8C416 424 448 426 480 424.2C512 422.3 544 416.7 576 407.7C608 398.7 640 386.3 672 381C704 375.7 736 377.3 768 381.8C800 386.3 832 393.7 864 391C896 388.3 928 375.7 944 369.3L960 363L960 280L944 265.5C928 251 896 222 864 219.3C832 216.7 800 240.3 768 251.2C736 262 704 260 672 253.7C640 247.3 608 236.7 576 234C544 231.3 512 236.7 480 231.2C448 225.7 416 209.3 384 213C352 216.7 320 240.3 288 252.2C256 264 224 264 192 267.5C160 271 128 278 96 273.5C64 269 32 253 16 245L0 237Z" fill="#4ecabf"></path><path d="M0 465L16 464.2C32 463.3 64 461.7 96 463.5C128 465.3 160 470.7 192 466.2C224 461.7 256 447.3 288 450C320 452.7 352 472.3 384 485C416 497.7 448 503.3 480 502.5C512 501.7 544 494.3 576 483.5C608 472.7 640 458.3 672 454.7C704 451 736 458 768 467C800 476 832 487 864 488C896 489 928 480 944 475.5L960 471L960 361L944 367.3C928 373.7 896 386.3 864 389C832 391.7 800 384.3 768 379.8C736 375.3 704 373.7 672 379C640 384.3 608 396.7 576 405.7C544 414.7 512 420.3 480 422.2C448 424 416 422 384 413.8C352 405.7 320 391.3 288 388.7C256 386 224 395 192 404.8C160 414.7 128 425.3 96 428C64 430.7 32 425.3 16 422.7L0 420Z" fill="#43afa6"></path><path d="M0 541L16 541C32 541 64 541 96 541C128 541 160 541 192 541C224 541 256 541 288 541C320 541 352 541 384 541C416 541 448 541 480 541C512 541 544 541 576 541C608 541 640 541 672 541C704 541 736 541 768 541C800 541 832 541 864 541C896 541 928 541 944 541L960 541L960 469L944 473.5C928 478 896 487 864 486C832 485 800 474 768 465C736 456 704 449 672 452.7C640 456.3 608 470.7 576 481.5C544 492.3 512 499.7 480 500.5C448 501.3 416 495.7 384 483C352 470.3 320 450.7 288 448C256 445.3 224 459.7 192 464.2C160 468.7 128 463.3 96 461.5C64 459.7 32 461.3 16 462.2L0 463Z" fill="#38958d"></path></svg>