<svg width="41" height="41" viewBox="0 0 41 41" fill="none" xmlns="http://www.w3.org/2000/svg">
<path fill-rule="evenodd" clip-rule="evenodd" d="M20.6841 40.1382C31.7298 40.1382 40.6841 31.1839 40.6841 20.1382C40.6841 9.09249 31.7298 0.138184 20.6841 0.138184C9.63837 0.138184 0.684082 9.09249 0.684082 20.1382C0.684082 31.1839 9.63837 40.1382 20.6841 40.1382ZM26.9234 9.45502C27.2271 8.37623 26.1802 7.73831 25.2241 8.41948L11.8772 17.9278C10.8403 18.6665 11.0034 20.1382 12.1222 20.1382H15.6368V20.111H22.4866L16.9053 22.0803L14.4448 30.8214C14.1411 31.9002 15.1879 32.5381 16.1441 31.8569L29.491 22.3487C30.5279 21.61 30.3647 20.1382 29.246 20.1382H23.9162L26.9234 9.45502Z" fill="#4ECABF"/>
</svg>
