<svg width="170" height="41" viewBox="0 0 170 41" fill="none" xmlns="http://www.w3.org/2000/svg">
<g clip-path="url(#clip0_28_153)">
<path d="M51.8601 28.138H63.8121V24.538H56.1081V10.978H51.8601V28.138Z" fill="#F2F2F2"/>
<path d="M70.8933 25.7382C69.1893 25.7382 68.3013 24.2502 68.3013 22.0182C68.3013 19.7862 69.1893 18.2742 70.8933 18.2742C72.5973 18.2742 73.5093 19.7862 73.5093 22.0182C73.5093 24.2502 72.5973 25.7382 70.8933 25.7382ZM70.9173 28.5222C74.8773 28.5222 77.4693 25.7142 77.4693 22.0182C77.4693 18.3222 74.8773 15.5142 70.9173 15.5142C66.9813 15.5142 64.3413 18.3222 64.3413 22.0182C64.3413 25.7142 66.9813 28.5222 70.9173 28.5222Z" fill="#F2F2F2"/>
<path d="M84.3238 32.3862C86.1478 32.3862 87.7558 31.9782 88.8358 31.0182C89.8198 30.1302 90.4678 28.7862 90.4678 26.9382V15.8502H86.7238V17.1702H86.6758C85.9558 16.1382 84.8518 15.4902 83.2198 15.4902C80.1718 15.4902 78.0598 18.0342 78.0598 21.6342C78.0598 25.4022 80.6278 27.4662 83.3878 27.4662C84.8758 27.4662 85.8118 26.8662 86.5318 26.0502H86.6278V27.2742C86.6278 28.7622 85.9318 29.6262 84.2758 29.6262C82.9798 29.6262 82.3318 29.0742 82.1158 28.4262H78.3238C78.7078 30.9942 80.9398 32.3862 84.3238 32.3862ZM84.2998 24.5622C82.8358 24.5622 81.8758 23.3622 81.8758 21.5142C81.8758 19.6422 82.8358 18.4422 84.2998 18.4422C85.9318 18.4422 86.7958 19.8342 86.7958 21.4902C86.7958 23.2182 86.0038 24.5622 84.2998 24.5622Z" fill="#F2F2F2"/>
<path d="M98.166 25.7382C96.462 25.7382 95.574 24.2502 95.574 22.0182C95.574 19.7862 96.462 18.2742 98.166 18.2742C99.87 18.2742 100.782 19.7862 100.782 22.0182C100.782 24.2502 99.87 25.7382 98.166 25.7382ZM98.19 28.5222C102.15 28.5222 104.742 25.7142 104.742 22.0182C104.742 18.3222 102.15 15.5142 98.19 15.5142C94.254 15.5142 91.614 18.3222 91.614 22.0182C91.614 25.7142 94.254 28.5222 98.19 28.5222Z" fill="#F2F2F2"/>
<path d="M105.884 28.138H109.796V15.85H105.884V28.138ZM105.884 14.146H109.796V10.978H105.884V14.146Z" fill="#F2F2F2"/>
<path d="M111.494 32.1942H115.406V26.8662H115.454C116.222 27.8982 117.35 28.5222 118.934 28.5222C122.15 28.5222 124.286 25.9782 124.286 21.9942C124.286 18.2982 122.294 15.4902 119.03 15.4902C117.35 15.4902 116.15 16.2342 115.31 17.3382H115.238V15.8502H111.494V32.1942ZM117.926 25.4982C116.246 25.4982 115.286 24.1302 115.286 22.1382C115.286 20.1462 116.15 18.6342 117.854 18.6342C119.534 18.6342 120.326 20.0262 120.326 22.1382C120.326 24.2262 119.414 25.4982 117.926 25.4982Z" fill="#F2F2F2"/>
<path d="M130.655 28.5222C133.871 28.5222 136.247 27.1302 136.247 24.4422C136.247 21.2982 133.703 20.7462 131.543 20.3862C129.983 20.0982 128.591 19.9782 128.591 19.1142C128.591 18.3462 129.335 17.9862 130.295 17.9862C131.375 17.9862 132.119 18.3222 132.263 19.4262H135.863C135.671 17.0022 133.799 15.4902 130.319 15.4902C127.415 15.4902 125.015 16.8342 125.015 19.4262C125.015 22.3062 127.295 22.8822 129.431 23.2422C131.063 23.5302 132.551 23.6502 132.551 24.7542C132.551 25.5462 131.807 25.9782 130.631 25.9782C129.335 25.9782 128.519 25.3782 128.375 24.1542H124.679C124.799 26.8662 127.055 28.5222 130.655 28.5222Z" fill="#F2F2F2"/>
<path d="M141.561 28.4981C143.265 28.4981 144.345 27.8261 145.233 26.6261H145.305V28.1381H149.049V15.8501H145.137V22.7141C145.137 24.1781 144.321 25.1861 142.977 25.1861C141.729 25.1861 141.129 24.4421 141.129 23.0981V15.8501H137.241V23.9141C137.241 26.6501 138.729 28.4981 141.561 28.4981Z" fill="#F2F2F2"/>
<path d="M150.75 28.1382H154.662V21.2502C154.662 19.7862 155.382 18.7542 156.606 18.7542C157.782 18.7542 158.334 19.5222 158.334 20.8422V28.1382H162.246V21.2502C162.246 19.7862 162.942 18.7542 164.19 18.7542C165.366 18.7542 165.918 19.5222 165.918 20.8422V28.1382H169.83V20.1462C169.83 17.3862 168.438 15.4902 165.654 15.4902C164.07 15.4902 162.75 16.1622 161.79 17.6502H161.742C161.118 16.3302 159.894 15.4902 158.286 15.4902C156.51 15.4902 155.334 16.3302 154.566 17.6022H154.494V15.8502H150.75V28.1382Z" fill="#F2F2F2"/>
<path fill-rule="evenodd" clip-rule="evenodd" d="M20.6841 40.1382C31.7298 40.1382 40.6841 31.1839 40.6841 20.1382C40.6841 9.09249 31.7298 0.138184 20.6841 0.138184C9.63837 0.138184 0.684082 9.09249 0.684082 20.1382C0.684082 31.1839 9.63837 40.1382 20.6841 40.1382ZM26.9234 9.45502C27.2271 8.37623 26.1802 7.73831 25.2241 8.41948L11.8772 17.9278C10.8403 18.6665 11.0034 20.1382 12.1222 20.1382H15.6368V20.111H22.4866L16.9053 22.0803L14.4448 30.8214C14.1411 31.9002 15.1879 32.5381 16.1441 31.8569L29.491 22.3487C30.5279 21.61 30.3647 20.1382 29.246 20.1382H23.9162L26.9234 9.45502Z" fill="#4D9C95"/>
</g>
<defs>
<clipPath id="clip0_28_153">
<rect width="170" height="41" fill="white"/>
</clipPath>
</defs>
</svg>
